<svg width="43" height="43" viewBox="0 0 43 43" fill="none" xmlns="http://www.w3.org/2000/svg">
<rect width="43" height="43" fill="black"/>
<path d="M30 12H14C13.4696 12 12.9609 12.2107 12.5858 12.5858C12.2107 12.9609 12 13.4696 12 14V30C12 30.5304 12.2107 31.0391 12.5858 31.4142C12.9609 31.7893 13.4696 32 14 32H30C30.5304 32 31.0391 31.7893 31.4142 31.4142C31.7893 31.0391 32 30.5304 32 30V14C32 13.4696 31.7893 12.9609 31.4142 12.5858C31.0391 12.2107 30.5304 12 30 12V12ZM22 18C22.7911 18 23.5645 18.2346 24.2223 18.6741C24.8801 19.1136 25.3928 19.7384 25.6955 20.4693C25.9983 21.2002 26.0775 22.0044 25.9231 22.7804C25.7688 23.5563 25.3878 24.269 24.8284 24.8284C24.269 25.3878 23.5563 25.7688 22.7804 25.9231C22.0044 26.0775 21.2002 25.9983 20.4693 25.6955C19.7384 25.3928 19.1136 24.8801 18.6741 24.2223C18.2346 23.5645 18 22.7911 18 22C18 20.9391 18.4214 19.9217 19.1716 19.1716C19.9217 18.4214 20.9391 18 22 18ZM14.5 30C14.4383 30.0041 14.3763 29.9959 14.3177 29.976C14.2591 29.956 14.2051 29.9247 14.1586 29.8839C14.1122 29.843 14.0742 29.7933 14.047 29.7377C14.0198 29.6822 14.0038 29.6218 14 29.56V21H16.1C16.0169 21.3265 15.9832 21.6635 16 22C16 23.5913 16.6321 25.1174 17.7574 26.2426C18.8826 27.3679 20.4087 28 22 28C23.5913 28 25.1174 27.3679 26.2426 26.2426C27.3679 25.1174 28 23.5913 28 22C28.0168 21.6635 27.9831 21.3265 27.9 21H30V29.5C30.0041 29.5617 29.9959 29.6237 29.976 29.6823C29.956 29.7409 29.9247 29.7949 29.8839 29.8414C29.843 29.8878 29.7933 29.9258 29.7377 29.953C29.6822 29.9802 29.6218 29.9962 29.56 30H14.5ZM30 16.5C30.0041 16.5617 29.9959 16.6237 29.976 16.6823C29.956 16.7409 29.9247 16.7949 29.8839 16.8414C29.843 16.8878 29.7933 16.9258 29.7377 16.953C29.6822 16.9802 29.6218 16.9962 29.56 17H27.5C27.4383 17.0041 27.3763 16.9959 27.3177 16.976C27.2591 16.956 27.2051 16.9247 27.1586 16.8839C27.1122 16.843 27.0742 16.7933 27.047 16.7377C27.0198 16.6822 27.0038 16.6218 27 16.56V14.5C26.9959 14.4383 27.0041 14.3763 27.024 14.3177C27.044 14.2591 27.0753 14.2051 27.1161 14.1586C27.157 14.1122 27.2067 14.0742 27.2623 14.047C27.3178 14.0198 27.3782 14.0038 27.44 14H29.5C29.5617 13.9959 29.6237 14.0041 29.6823 14.024C29.7409 14.044 29.7949 14.0753 29.8414 14.1161C29.8878 14.157 29.9258 14.2067 29.953 14.2623C29.9802 14.3178 29.9962 14.3782 30 14.44V16.5Z" fill="white"/>
</svg>
